<?xml version="1.0" encoding="UTF-8"?>
<svg id="Layer_1" xmlns="http://www.w3.org/2000/svg" version="1.1" viewBox="0 0 327.263 69.543">
  <!-- Generator: Adobe Illustrator 29.7.1, SVG Export Plug-In . SVG Version: 2.1.1 Build 8)  -->
  <defs>
    <style>
      .st0 {
        fill: #ffa300;
      }

      .st1 {
        fill: #00a05f;
      }
    </style>
  </defs>
  <path d="M126.502,29.937c-1.012-.846-2.383-1.269-4.115-1.269-1.156,0-2.259.217-3.312.65s-2.012,1.02-2.879,1.763c.083.332.144.683.186,1.053.04.37.06.743.06,1.113v19.932c-.29.121-.703.237-1.237.337-.536.106-1.096.156-1.672.156-1.196,0-2.083-.227-2.662-.68-.577-.453-.866-1.219-.866-2.292v-16.771c0-1.816-.516-3.146-1.546-3.992-1.033-.846-2.415-1.269-4.148-1.269-1.156,0-2.249.184-3.279.557-1.033.37-1.899.783-2.599,1.237v22.717c-.29.121-.693.237-1.209.337-.516.106-1.083.156-1.7.156-1.199,0-2.085-.227-2.662-.68-.579-.453-.866-1.219-.866-2.292v-20.423c0-.95.184-1.713.557-2.292.37-.577.99-1.154,1.856-1.733,1.196-.783,2.702-1.443,4.518-1.98s3.652-.806,5.511-.806c1.937,0,3.682.269,5.229.806,1.549.536,2.816,1.32,3.808,2.352,1.154-.907,2.526-1.662,4.115-2.259,1.587-.599,3.435-.899,5.538-.899,1.609,0,3.115.196,4.521.589,1.4.393,2.609,1.012,3.619,1.856,1.01.846,1.806,1.909,2.383,3.189.579,1.279.866,2.806.866,4.579v19.499c-.33.121-.753.237-1.267.337-.516.106-1.083.156-1.703.156-1.199,0-2.085-.227-2.662-.68-.579-.453-.866-1.219-.866-2.292v-16.771c0-1.816-.506-3.146-1.516-3.992Z"/>
  <path d="M164.042,45.315c0,2.765-1.033,4.931-3.095,6.498-2.063,1.572-5.055,2.352-8.976,2.352-1.609,0-3.093-.121-4.455-.368-1.363-.252-2.529-.599-3.498-1.053s-1.723-.992-2.259-1.612-.803-1.3-.803-2.04c0-.62.154-1.199.463-1.733.31-.539.733-.972,1.269-1.3,1.156.74,2.476,1.42,3.962,2.04s3.219.927,5.198.927c1.859,0,3.282-.317,4.271-.957s1.486-1.556,1.486-2.755c0-1.033-.34-1.859-1.023-2.473-.68-.62-1.68-1.093-3.002-1.426l-4.209-1.113c-2.806-.745-4.868-1.753-6.188-3.032-1.322-1.279-1.982-3.032-1.982-5.261,0-1.196.249-2.322.743-3.375.496-1.05,1.227-1.959,2.199-2.723.967-.763,2.176-1.363,3.619-1.796,1.446-.433,3.095-.65,4.952-.65,1.486,0,2.838.116,4.055.343s2.269.536,3.156.927c.889.393,1.579.876,2.075,1.456.494.577.743,1.196.743,1.856s-.146,1.229-.433,1.703c-.29.473-.662.856-1.116,1.143-.743-.453-1.846-.947-3.312-1.483-1.463-.536-3.042-.806-4.735-.806-1.733,0-3.093.3-4.085.899-.99.597-1.483,1.433-1.483,2.506,0,.826.277,1.506.834,2.043.559.536,1.516.97,2.879,1.3l3.591.929c3.133.826,5.445,1.937,6.931,3.342,1.486,1.4,2.229,3.299,2.229,5.692Z"/>
  <path d="M189.172,50.579c-.783.494-1.743.907-2.879,1.234-1.136.332-2.486.499-4.055.499-1.816,0-3.539-.257-5.168-.776-1.63-.514-3.063-1.34-4.302-2.473-1.237-1.138-2.219-2.609-2.939-4.428-.723-1.813-1.083-4.045-1.083-6.684,0-2.393.36-4.488,1.083-6.281.72-1.796,1.733-3.302,3.032-4.518s2.849-2.136,4.642-2.755c1.796-.62,3.785-.929,5.974-.929,2.022,0,3.889.259,5.601.776s3.105,1.123,4.178,1.826c.7.453,1.247.97,1.64,1.546.393.579.589,1.279.589,2.106v24.385c0,2.065-.363,3.838-1.083,5.324-.723,1.486-1.713,2.69-2.972,3.622-1.259.927-2.755,1.607-4.488,2.04s-3.589.65-5.571.65c-2.103,0-3.919-.207-5.445-.62-1.529-.413-2.642-.826-3.342-1.239-1.279-.781-1.919-1.813-1.919-3.093,0-.7.144-1.29.433-1.763.287-.473.66-.856,1.113-1.143.95.66,2.206,1.254,3.775,1.793,1.569.534,3.239.806,5.014.806,2.599,0,4.612-.529,6.034-1.582s2.136-2.755,2.136-5.103v-3.219ZM183.168,47.235c1.403,0,2.579-.207,3.529-.62s1.753-.907,2.413-1.486v-14.975c-.617-.373-1.383-.713-2.289-1.023s-1.98-.463-3.219-.463c-2.516,0-4.538.763-6.065,2.289-1.529,1.526-2.292,3.838-2.292,6.934,0,1.692.207,3.133.62,4.332.413,1.194.97,2.166,1.672,2.906.7.745,1.536,1.279,2.506,1.612.97.327,2.012.494,3.126.494Z"/>
  <path d="M217.581,28.728c-1.32,0-2.536.217-3.652.65-1.113.433-2.073,1.083-2.879,1.952-.803.866-1.443,1.929-1.917,3.186-.476,1.259-.713,2.715-.713,4.362,0,3.259.846,5.747,2.539,7.46,1.69,1.713,3.899,2.569,6.621,2.569,1.569,0,2.909-.207,4.025-.62,1.113-.413,2.083-.907,2.909-1.486.534.332.97.72,1.3,1.174.33.458.494,1.012.494,1.672,0,1.279-.834,2.352-2.506,3.219-1.67.866-3.869,1.3-6.591,1.3-2.269,0-4.345-.307-6.221-.927-1.879-.62-3.498-1.567-4.858-2.846-1.363-1.279-2.425-2.881-3.189-4.8s-1.146-4.156-1.146-6.715.403-4.805,1.209-6.745c.803-1.939,1.896-3.549,3.279-4.828s3.002-2.236,4.858-2.879c1.859-.64,3.818-.96,5.881-.96,1.363,0,2.589.126,3.682.373s2.032.587,2.818,1.02c.783.433,1.39.929,1.826,1.486.433.557.65,1.146.65,1.766,0,.577-.156,1.103-.466,1.577-.31.476-.69.836-1.143,1.083-.866-.534-1.826-1.01-2.879-1.423-1.053-.411-2.362-.62-3.931-.62Z"/>
  <path d="M238.939,53.178c-.29.121-.693.237-1.209.337-.516.106-1.083.156-1.7.156-1.199,0-2.085-.227-2.662-.68-.579-.453-.866-1.219-.866-2.292v-20.3c0-1.03.207-1.866.62-2.506.411-.64,1.07-1.249,1.98-1.826,1.196-.743,2.723-1.363,4.581-1.859,1.856-.494,3.899-.743,6.128-.743,3.629,0,5.445,1.033,5.445,3.095,0,.496-.083.96-.247,1.393-.166.433-.35.816-.557,1.146-.413-.083-.929-.164-1.549-.249-.617-.081-1.279-.123-1.98-.123-1.652,0-3.156.176-4.518.526-1.363.353-2.519.796-3.466,1.332v22.592Z"/>
  <path d="M266.296,23.467c3.838,0,6.891.836,9.16,2.508,2.269,1.67,3.405,4.302,3.405,7.891v14.421c0,.947-.217,1.682-.65,2.196-.433.519-1.023,1.002-1.766,1.456-1.073.62-2.456,1.154-4.146,1.607-1.692.453-3.652.685-5.881.685-4.002,0-7.128-.786-9.377-2.352-2.249-1.572-3.375-3.879-3.375-6.936,0-2.72.876-4.805,2.632-6.251,1.753-1.441,4.282-2.327,7.583-2.66l8.603-.866v-1.36c0-1.816-.589-3.136-1.766-3.962s-2.816-1.239-4.921-1.239c-1.65,0-3.239.227-4.765.683-1.526.453-2.889.97-4.085,1.546-.413-.33-.763-.733-1.053-1.206s-.433-1-.433-1.579c0-.7.176-1.279.526-1.733s.897-.846,1.64-1.176c1.156-.577,2.476-1,3.962-1.269,1.486-.267,3.053-.403,4.705-.403ZM266.419,49.154c1.443,0,2.702-.146,3.775-.433s1.836-.599,2.292-.927v-7.863l-6.747.68c-1.899.207-3.322.63-4.271,1.269s-1.423,1.622-1.423,2.942c0,1.36.514,2.423,1.546,3.189,1.033.761,2.642,1.143,4.828,1.143Z"/>
  <path d="M292.909,26.129h11.699c.164.247.32.589.463,1.023s.217.939.217,1.516c0,1.733-.783,2.599-2.352,2.599h-9.84v21.912c-.29.121-.693.237-1.206.337-.516.106-1.086.156-1.703.156-1.199,0-2.085-.227-2.662-.68-.579-.453-.866-1.219-.866-2.292v-28.223c0-1.896.277-3.529.836-4.889.557-1.363,1.35-2.476,2.383-3.342,1.03-.869,2.279-1.506,3.745-1.919,1.463-.413,3.083-.62,4.858-.62,2.559,0,4.518.33,5.881.99,1.36.66,2.043,1.589,2.043,2.786,0,.579-.116,1.083-.343,1.516s-.504.816-.834,1.146c-.786-.33-1.692-.62-2.725-.866-1.03-.249-2.083-.373-3.156-.373-2.312,0-3.962.456-4.952,1.363-.99.909-1.486,2.393-1.486,4.455v3.405Z"/>
  <path d="M318.226,47.975c.866.62,2.083.932,3.652.932.703,0,1.446-.106,2.229-.312s1.463-.453,2.043-.74c.287.332.547.7.773,1.113s.34.907.34,1.486c0,1.073-.547,1.959-1.64,2.66-1.093.705-2.753,1.053-4.982,1.053-3.095,0-5.561-.69-7.397-2.07-1.836-1.385-2.755-3.662-2.755-6.84v-28.906c.29-.083.703-.186,1.239-.31s1.113-.184,1.733-.184c1.196,0,2.073.227,2.629.68.559.453.836,1.216.836,2.289v6.128h9.596c.164.247.317.599.463,1.053.144.453.217.929.217,1.423,0,1.776-.766,2.662-2.289,2.662h-7.986v14.731c0,1.486.433,2.539,1.3,3.153Z"/>
  <path class="st1" d="M38.889,69.543c-6.845,0-13.447-1.934-19.169-5.611H0l8.926-10.764c-3.685-5.707-5.619-12.283-5.619-19.184C3.307,24.712,18.957,6.256,22.095,2.65l2.304-2.65,14.492,11.092L53.399.003l2.307,2.647c3.133,3.599,18.766,22.02,18.766,31.334,0,19.607-15.963,35.56-35.582,35.56ZM0,63.931l22.017-7.475.957.66c4.692,3.239,10.195,4.952,15.915,4.952,15.497,0,28.102-12.598,28.102-28.085,0-4.312-7.949-15.63-14.658-23.745l-13.447,10.263-13.416-10.263c-6.722,8.13-14.683,19.458-14.683,23.745,0,6.251,2.007,12.162,5.805,17.088l1.826,2.367L0,63.931Z"/>
  <circle class="st0" cx="26.298" cy="37.405" r="6.889"/>
  <circle class="st0" cx="51.492" cy="37.405" r="6.889"/>
</svg>